# AST/ASF file generated using VICON BodyLanguage
# -----------------------------------------------
:version 1.10
:name VICON
:units
  mass 1.0
  length 0.45
  angle deg
:documentation
   .ast/.asf automatically generated from VICON data using
   VICON BodyBuilder and BodyLanguage model FoxedUp or BRILLIANT.MOD
:root
   order TX TY TZ RX RY RZ
   axis XYZ
   position 0 0 0  
   orientation 0 0 0 
:bonedata
  begin
     id 1 
     name lhipjoint
     direction 0.682418 -0.694059 0.22932 
     length 2.25561 
     axis 0 0 0  XYZ
  end
  begin
     id 2 
     name lfemur
     direction 0.34202 -0.939693 0  
     length 6.96448  
     axis 0 0 20  XYZ
    dof rx ry rz
    limits (-160.0 20.0)
           (-70.0 70.0)
           (-60.0 70.0)
  end
  begin
     id 3 
     name ltibia
     direction 0.34202 -0.939693 0   
     length 6.88553   
     axis 0 0 20   XYZ
    dof rx
    limits (-10.0 170.0)
  end
  begin
     id 4 
     name lfoot
     direction 0.0723587 -0.198804 0.977364   
     length 1.88518   
     axis -90 7.62852e-016 20   XYZ
    dof rx rz
    limits (-45.0 90.0)
           (-70.0 20.0)
  end
  begin
     id 5 
     name ltoes
     direction 1.53558e-011 -4.21962e-011 1   
     length 0.952124   
     axis -90 7.62852e-016 20   XYZ
    dof rx
    limits (-90.0 20.0)
  end
  begin
     id 6 
     name rhipjoint
     direction -0.657603 -0.71533 0.236348   
     length 2.18854  
     axis 0 0 0  XYZ 
  end
  begin
     id 7 
     name rfemur
     direction -0.34202 -0.939693 0   
     length 6.86686   
     axis 0 0 -20   XYZ
    dof rx ry rz
    limits (-160.0 20.0)
           (-70.0 70.0)
           (-70.0 60.0)
  end
  begin
     id 8 
     name rtibia
     direction -0.34202 -0.939693 0   
     length 6.59503   
     axis 0 0 -20   XYZ
    dof rx
    limits (-10.0 170.0)
 end
 begin
     id 9 
     name rfoot
     direction -0.101977 -0.280179 0.954516   
     length 1.93723  
     axis -90 -7.62852e-016 -20   XYZ
    dof rx rz
    limits (-45.0 90.0)
           (-20.0 70.0)
  end
  begin
     id 10 
     name rtoes
     direction -1.53564e-011 -4.21897e-011 1   
     length 0.970315   
     axis -90 -7.62852e-016 -20   XYZ
    dof rx
    limits (-90.0 20.0)
  end
  begin
     id 11 
     name lowerback
     direction -0.0339559 0.999421 -0.00235966   
     length 1.88543   
     axis 0 0 0   XYZ
    dof rx ry rz
    limits (-20.0 45.0)
           (-30.0 30.0)
           (-30.0 30.0)
  end
  begin
     id 12 
     name upperback
     direction 0.00401003 0.999739 0.0224689   
     length 1.8856   
     axis 0 0 0   XYZ
    dof rx ry rz
    limits (-20.0 45.0)
           (-30.0 30.0)
           (-30.0 30.0)
  end
  begin
     id 13 
     name thorax
     direction 0.0198619 0.999546 0.0226536   
     length 1.88352   
     axis 0 0 0   XYZ
    dof rx ry rz
    limits (-20.0 45.0)
           (-30.0 30.0)
           (-30.0 30.0)
  end
  begin
     id 14 
     name lowerneck
     direction -0.0461848 0.998632 0.0245198   
     length 1.34895   
     axis 0 0 0   XYZ
    dof rx ry rz
    limits (-20.0 45.0)
           (-30.0 30.0)
           (-30.0 30.0)
  end
  begin
     id 15 
     name upperneck
     direction -0.0180627 0.994724 -0.100984   
     length 1.35214   
     axis 0 0 0   XYZ
    dof rx ry rz
    limits (-20.0 45.0)
           (-30.0 30.0)
           (-30.0 30.0)
  end
  begin
     id 16
     name head
     direction -0.00374772 0.999293 -0.037403  
     length 1.3568  
     axis 0 0 0   XYZ
    dof rx ry rz
    limits (-20.0 45.0)
           (-30.0 30.0)
           (-30.0 30.0)
  end
  begin
     id 17 
     name lclavicle
     direction 0.971773 0.191119 0.138311  
     length 2.84954  
     axis 0 0 0   XYZ
    dof ry rz
    limits (-20.0 10.0)
           (0.0 20.0)
  end
  begin
     id 18 
     name lhumerus
     direction 1 -4.4897e-011 -2.43761e-027   
     length 4.40919   
     axis 180 -30 -90   XYZ
    dof rx ry rz
    limits (-60.0 90.0)
           (-90.0 90.0)
           (-90.0 90.0)
  end
  begin
     id 19
     name lradius
     direction 1 -4.4896e-011 -9.1621e-027   
     length 3.03857   
     axis 180 -30 -90   XYZ
    dof rx
    limits (-10.0 170.0)
  end
  begin
     id 20
     name lwrist
     direction 1 -4.4896e-011 -1.41363e-026   
     length 1.51928   
     axis 1.07133e-014 90 90   XYZ
    dof ry
    limits (-180.0 0.0)
 end
  begin
     id 21 
     name lhand
     direction 1 -4.48978e-011 -2.82725e-026   
     length 0.523208   
     axis 1.80403e-014 90 90   XYZ
    dof rx rz
    limits (-90.0 90.0)
           (-45.0 45.0)
  end
  begin
     id 22 
     name lfingers
     direction 1 -4.48977e-011 -5.6545e-026   
     length 0.421824   
     axis 3.60806e-014 90 90   XYZ
    dof rx
    limits (0.0 90.0)
  end
  begin
     id 23
     name lthumb
     direction 0.707107 -6.34962e-011 0.707107   
     length 0.605657   
     axis -90 45 2.85299e-015   XYZ
    dof rx rz
    limits (-45.0 45.0)
           (-45.0 45.0)
  end
  begin
     id 24 
     name rclavicle
     direction -0.957247 0.24311 0.156766   
     length 3.12406  
     axis 0 0 0   XYZ 
    dof ry rz
    limits (-10.0 20.0)
           (-20.0 0.0)
  end
  begin
     id 25 
     name rhumerus
     direction -1 -4.48964e-011 -1.70632e-027  
     length 4.61969   
     axis 180 30 90   XYZ
    dof rx ry rz
    limits (-90.0 60.0)
           (-90.0 90.0)
           (-90.0 90.0)
  end
  begin
     id 26 
     name rradius
     direction -1 -4.48966e-011 -6.60395e-027   
     length 3.09382   
     axis 180 30 90   XYZ
    dof rx
    limits (-10.0 170.0)
  end
  begin
     id 27 
     name rwrist
     direction -1 -4.48963e-011 -1.41363e-026   
     length 1.54691   
     axis 1.07133e-014 -90 -90   XYZ
    dof ry
    limits (-180.0 0.0)
  end
  begin
     id 28
     name rhand
     direction -1 -4.49013e-011 -2.82725e-026   
     length 0.500896   
     axis 1.80403e-014 -90 -90   XYZ
    dof rx rz
    limits (-90.0 90.0)
           (-45.0 45.0)
  end
  begin
     id 29
     name rfingers
     direction -1 -4.48902e-011 -5.6545e-026   
     length 0.403835   
     axis 3.60806e-014 -90 -90   XYZ
    dof rx
    limits (0.0 90.0)
  end
  begin
     id 30
     name rthumb
     direction -0.707107 -6.34953e-011 0.707107   
     length 0.579829   
     axis -90 -45 -2.85299e-015   XYZ
    dof rx rz
    limits (-45.0 45.0)
           (-45.0 45.0)
  end
:hierarchy
  begin
    root lhipjoint rhipjoint lowerback
    lhipjoint lfemur
    lfemur ltibia
    ltibia lfoot
    lfoot ltoes
    rhipjoint rfemur
    rfemur rtibia
    rtibia rfoot
    rfoot rtoes
    lowerback upperback
    upperback thorax
    thorax lowerneck lclavicle rclavicle
    lowerneck upperneck
    upperneck head
    lclavicle lhumerus
    lhumerus lradius
    lradius lwrist
    lwrist lhand lthumb
    lhand lfingers
    rclavicle rhumerus
    rhumerus rradius
    rradius rwrist
    rwrist rhand rthumb
    rhand rfingers
  end

#!OML:ASF E:\madness\Project 1\Capture day 1\Session 1\Female1.ASF
:FULLY-SPECIFIED
:DEGREES
1092
root 9.70589 16.1838 -2.6042 -357.79 -79.553 364.615
lowerback 0.580692 0.875223 -3.15563
upperback -4.5334 0.965301 -0.854079
thorax -5.05172 0.563509 0.83673
lowerneck -0.215127 4.07038 3.17996
upperneck 15.8532 5.67873 -4.38667
head 5.00752 2.59012 -1.64137
rclavicle 4.18939e-014 1.94809e-014
rhumerus -56.7008 -8.33144 -66.8176
rradius 56.0664
rwrist -0.766821
rhand -14.5932 -45.1541
rfingers 7.12502
rthumb 11.5571 -74.8155
lclavicle 4.18939e-014 1.94809e-014
lhumerus -66.4126 14.7774 72.0385
lradius 65.046
lwrist -3.73166
lhand -34.6044 -16.1417
lfingers 7.12502
lthumb -7.76296 13.6958
rfemur -4.96289 3.20372 25.6237
rtibia 17.9145
rfoot -18.0302 -17.1098
rtoes 20.6692
lfemur -37.9884 -6.80058 -14.3174
ltibia 43.7324
lfoot -3.28969 4.95314
ltoes 13.9838
1093
root 9.76198 16.1914 -2.61195 -358.205 -79.423 365.19
lowerback 0.512949 0.968138 -3.13797
upperback -4.54174 1.09027 -0.89888
thorax -5.02541 0.623402 0.775161
lowerneck -0.569211 4.05605 2.77256
upperneck 16.0265 5.64269 -4.08699
head 5.09979 2.5612 -1.47494
rclavicle 6.4605e-015 4.37326e-015
rhumerus -56.4579 -8.06415 -66.9913
rradius 56.2792
rwrist -1.04662
rhand -14.1812 -45.6122
rfingers 7.12502
rthumb 11.9543 -75.2509
lclavicle 6.4605e-015 4.37326e-015
lhumerus -66.4673 14.8587 72.0241
lradius 65.2177
lwrist -3.83588
lhand -34.4278 -15.8077
lfingers 7.12502
lthumb -7.59254 14.036
rfemur -5.56408 3.13814 25.4653
rtibia 18.2917
rfoot -18.004 -17.204
rtoes 19.5681
lfemur -38.1071 -6.83389 -14.499
ltibia 45.3836
lfoot -3.80013 4.28033
ltoes 14.9015
1094
root 9.80954 16.1937 -2.62279 -358.349 -79.3456 365.414
lowerback 0.347328 1.08081 -3.13598
upperback -4.4897 1.24942 -0.909667
thorax -4.88207 0.700432 0.758871
lowerneck -0.786858 4.03651 2.56213
upperneck 16.0676 5.60978 -3.93322
head 5.13802 2.54086 -1.38939
rclavicle 1.26477e-014 -5.96354e-015
rhumerus -56.2433 -7.79247 -67.1696
rradius 56.5267
rwrist -1.24521
rhand -13.7723 -46.2613
rfingers 7.12502
rthumb 12.3486 -75.8766
lclavicle 1.26477e-014 -5.96354e-015
lhumerus -66.5132 14.9691 72.0256
lradius 65.4119
lwrist -3.91077
lhand -34.0937 -15.9154
lfingers 7.12502
lthumb -7.26997 13.9397
rfemur -6.05185 3.2125 25.3942
rtibia 18.6587
rfoot -18.0944 -17.2854
rtoes 19.3651
lfemur -38.0284 -6.81103 -14.5737
ltibia 47.0146
lfoot -4.37767 3.67916
ltoes 15.51
1095
root 9.8566 16.1928 -2.63506 -358.613 -79.171 365.742
lowerback 0.26443 1.14708 -3.317
upperback -4.46476 1.34062 -0.83572
thorax -4.81937 0.75415 0.934044
lowerneck -0.840475 3.95975 2.31047
upperneck 16.1169 5.51459 -3.88586
head 5.15066 2.4813 -1.33698
rclavicle -1.39646e-014 7.7526e-015
rhumerus -56.0912 -7.40483 -67.274
rradius 56.9247
rwrist -1.35402
rhand -13.9943 -46.4781
rfingers 7.12502
rthumb 12.1346 -76.1062
lclavicle -1.39646e-014 7.7526e-015
lhumerus -66.6565 15.1231 72.0997
lradius 65.6855
lwrist -3.92412
lhand -33.928 -15.7379
lfingers 7.12502
lthumb -7.11006 14.1227
rfemur -6.43075 3.34117 25.319
rtibia 18.9489
rfoot -18.275 -17.4356
rtoes 19.7133
lfemur -37.8959 -6.8253 -14.6795
ltibia 48.6083
lfoot -4.89974 3.11561
ltoes 14.4728
1096
root 9.90894 16.1942 -2.64342 -358.916 -78.9813 366.229
lowerback 0.0778512 1.15706 -3.52715
upperback -4.42911 1.36249 -0.718933
thorax -4.68605 0.774224 1.17551
lowerneck -0.796041 3.84713 2.0421
upperneck 15.9964 5.39874 -4.05529
head 5.09894 2.40164 -1.35292
rclavicle -5.02801e-014 -1.72943e-014
rhumerus -55.7172 -6.95875 -67.2827
rradius 57.2532
rwrist -1.30059
rhand -14.3074 -45.9296
rfingers 7.12502
rthumb 11.8327 -75.5753
lclavicle -5.02801e-014 -1.72943e-014
lhumerus -66.7467 15.515 72.1563
lradius 65.9798
lwrist -3.91955
lhand -33.8544 -15.8597
lfingers 7.12502
lthumb -7.03903 14.0032
rfemur -6.89791 3.43471 25.1783
rtibia 19.1526
rfoot -18.3695 -17.5538
rtoes 19.803
lfemur -37.8858 -6.91375 -14.8075
ltibia 50.1448
lfoot -5.43093 2.71105
ltoes 11.8301
1097
root 9.96211 16.1975 -2.64807 -359.023 -78.8461 366.495
lowerback -0.00991536 1.23374 -3.5406
upperback -4.45959 1.46792 -0.696433
thorax -4.67424 0.827623 1.20307
lowerneck -0.779258 3.71276 1.85854
upperneck 15.9035 5.23212 -4.09855
head 5.05807 2.30968 -1.34524
rclavicle -2.81653e-014 1.98785e-016
rhumerus -55.4739 -6.7486 -67.1918
rradius 57.4262
rwrist -0.952527
rhand -14.4151 -44.6838
rfingers 7.12502
rthumb 11.7288 -74.3354
lclavicle -2.81653e-014 1.98785e-016
lhumerus -66.9076 15.744 72.0808
lradius 66.2405
lwrist -3.94369
lhand -33.8287 -16.041
lfingers 7.12502
lthumb -7.01417 13.8228
rfemur -7.31096 3.49056 25.0609
rtibia 19.2446
rfoot -18.3746 -17.6293
rtoes 19.789
lfemur -37.8152 -7.02025 -14.8727
ltibia 51.6127
lfoot -5.89459 2.40103
ltoes 9.95933
1098
root 10.0133 16.2018 -2.65234 -359.208 -78.5983 366.615
lowerback 0.271969 1.38179 -3.48125
upperback -4.56819 1.64908 -0.754278
thorax -4.95388 0.918483 1.09308
lowerneck -0.888099 3.54928 1.5342
upperneck 16.1997 4.98271 -3.73111
head 5.14329 2.18365 -1.18723
rclavicle 1.03741e-014 1.19271e-015
rhumerus -55.6004 -6.61624 -67.0999
rradius 57.6203
rwrist -0.866239
rhand -14.1029 -44.0046
rfingers 7.12502
rthumb 12.0298 -73.6389
lclavicle 1.03741e-014 1.19271e-015
lhumerus -67.0924 15.523 72.0828
lradius 66.4269
lwrist -3.90514
lhand -34.058 -14.9436
lfingers 7.12502
lthumb -7.23551 14.9127
rfemur -7.40918 3.55308 24.9953
rtibia 19.2352
rfoot -18.3857 -17.8805
rtoes 20.1194
lfemur -37.4953 -7.23579 -14.928
ltibia 52.9995
lfoot -6.10574 2.15379
ltoes 10.6089
1099
root 10.0583 16.2077 -2.65992 -359.453 -78.1728 366.746
lowerback 0.467481 1.46884 -3.5288
upperback -4.56166 1.75595 -0.78134
thorax -5.0645 0.974862 1.08108
lowerneck -1.18131 3.39533 1.36729
upperneck 16.5399 4.77863 -3.63277
head 5.28629 2.07068 -1.13289
rclavicle 3.69615e-014 2.08724e-014
rhumerus -55.5491 -6.46022 -67.0826
rradius 57.7946
rwrist -1.11876
rhand -13.9831 -43.8679
rfingers 7.12502
rthumb 12.1454 -73.4954
lclavicle 3.69615e-014 2.08724e-014
lhumerus -66.9418 15.4679 72.1137
lradius 66.4438
lwrist -4.00697
lhand -34.1169 -14.0292
lfingers 7.12502
lthumb -7.29238 15.8252
rfemur -7.38599 3.68997 24.9593
rtibia 19.2043
rfoot -18.4751 -18.3716
rtoes 20.5033
lfemur -37.132 -7.55297 -14.9863
ltibia 54.2959
lfoot -6.2853 1.95579
ltoes 12.1241
1100
root 10.0992 16.2175 -2.66895 -359.598 -77.9516 366.971
lowerback 0.288901 1.56413 -3.66761
upperback -4.51267 1.8891 -0.777593
thorax -4.92318 1.04471 1.16151
lowerneck -1.19323 3.22348 1.63126
upperneck 16.4648 4.59084 -4.05482
head 5.27478 1.97078 -1.3175
rclavicle -2.23571e-014 1.13307e-014
rhumerus -55.3708 -6.36573 -67.0808
rradius 58.0025
rwrist -1.22974
rhand -14.4594 -43.6853
rfingers 7.12502
rthumb 11.6861 -73.3394
lclavicle -2.23571e-014 1.13307e-014
lhumerus -66.8274 15.7077 71.9937
lradius 66.5706
lwrist -4.21389
lhand -33.9512 -13.8468
lfingers 7.12502
lthumb -7.13244 16.0131
rfemur -7.59155 3.93349 24.8844
rtibia 19.2147
rfoot -18.6936 -18.706
rtoes 20.7253
lfemur -36.8885 -7.6614 -15.0524
ltibia 55.5161
lfoot -6.47982 1.90743
ltoes 13.1113
1101
root 10.1449 16.2244 -2.67365 -359.657 -78.0015 367.094
lowerback 0.161748 1.68362 -3.76327
upperback -4.49833 2.05465 -0.726889
thorax -4.85003 1.13106 1.26322
lowerneck -0.857034 3.07463 1.8045
upperneck 16.1447 4.41985 -4.40344
head 5.12398 1.88653 -1.46942
rclavicle 4.01421e-014 1.78906e-014
rhumerus -55.3047 -6.12633 -67.1108
rradius 58.386
rwrist -1.22776
rhand -14.8511 -44.0482
rfingers 7.12502
rthumb 11.3084 -73.7234
lclavicle 4.01421e-014 1.78906e-014
lhumerus -67.1456 15.8722 71.949
lradius 67.164
lwrist -4.06298
lhand -33.8077 -13.9551
lfingers 7.12502
lthumb -6.99397 15.9093
rfemur -7.83123 4.15519 24.8003
rtibia 19.2275
rfoot -18.7783 -18.7947
rtoes 20.7404
lfemur -36.518 -7.62254 -15.0988
ltibia 56.6536
lfoot -6.59956 2.06981
ltoes 12.8331
1102
root 10.195 16.2253 -2.67642 -359.207 -77.9544 366.693
lowerback 0.08174 1.71285 -3.81172
upperback -4.48393 2.10434 -0.562833
thorax -4.80056 1.1612 1.46021
lowerneck -0.820622 3.06571 1.32486
upperneck 16.0852 4.39254 -4.10821
head 5.08246 1.86495 -1.30044
rclavicle -3.90239e-014 -3.97569e-016
rhumerus -55.1333 -5.70713 -67.1406
rradius 58.7815
rwrist -1.29284
rhand -14.9462 -44.0862
rfingers 7.12502
rthumb 11.2166 -73.7664
lclavicle -3.90239e-014 -3.97569e-016
lhumerus -67.5207 16.287 71.8769
lradius 67.7593
lwrist -3.79361
lhand -33.357 -14.8804
lfingers 7.12502
lthumb -6.55888 14.9981
rfemur -8.12961 4.25943 24.831
rtibia 19.2893
rfoot -18.6797 -18.9465
rtoes 20.5746
lfemur -36.2037 -7.68171 -15.0035
ltibia 57.704
lfoot -6.82939 2.20456
ltoes 11.8669
